<svg xmlns="http://www.w3.org/2000/svg" viewBox="0 0 974 725" font-family="-apple-system, Helvetica Neue, Arial, sans-serif">
<rect width="974" height="725" fill="#fdfaf3"/>
<defs>
<marker id="arr" markerWidth="8" markerHeight="8" refX="7" refY="4" orient="auto"><polygon points="0,0 8,4 0,8" fill="#333"/></marker>
<marker id="arrR" markerWidth="8" markerHeight="8" refX="1" refY="4" orient="auto"><polygon points="8,0 0,4 8,8" fill="#333"/></marker>
<pattern id="hatch" patternUnits="userSpaceOnUse" width="6" height="6" patternTransform="rotate(45)"><line x1="0" y1="0" x2="0" y2="6" stroke="#a87a4e" stroke-width="0.8"/></pattern>
<pattern id="hatchL" patternUnits="userSpaceOnUse" width="5" height="5" patternTransform="rotate(45)"><line x1="0" y1="0" x2="0" y2="5" stroke="#c79e63" stroke-width="0.6"/></pattern>
</defs>
<text x="487.0" y="22" text-anchor="middle" font-size="14" font-weight="bold" fill="#222">LIT 1 — Vue de face (côté garde-corps)   ·   H 175 cm, sous-sommier 130 cm</text>
<line x1="60.0" y1="635.0" x2="744.0" y2="635.0" stroke="#888" stroke-width="0.6"/>
<line x1="66.0" y1="635.0" x2="60.0" y2="645.0" stroke="#aaa" stroke-width="0.5"/>
<line x1="75.0" y1="635.0" x2="69.0" y2="645.0" stroke="#aaa" stroke-width="0.5"/>
<line x1="84.0" y1="635.0" x2="78.0" y2="645.0" stroke="#aaa" stroke-width="0.5"/>
<line x1="93.0" y1="635.0" x2="87.0" y2="645.0" stroke="#aaa" stroke-width="0.5"/>
<line x1="102.0" y1="635.0" x2="96.0" y2="645.0" stroke="#aaa" stroke-width="0.5"/>
<line x1="111.0" y1="635.0" x2="105.0" y2="645.0" stroke="#aaa" stroke-width="0.5"/>
<line x1="120.0" y1="635.0" x2="114.0" y2="645.0" stroke="#aaa" stroke-width="0.5"/>
<line x1="129.0" y1="635.0" x2="123.0" y2="645.0" stroke="#aaa" stroke-width="0.5"/>
<line x1="138.0" y1="635.0" x2="132.0" y2="645.0" stroke="#aaa" stroke-width="0.5"/>
<line x1="147.0" y1="635.0" x2="141.0" y2="645.0" stroke="#aaa" stroke-width="0.5"/>
<line x1="156.0" y1="635.0" x2="150.0" y2="645.0" stroke="#aaa" stroke-width="0.5"/>
<line x1="165.0" y1="635.0" x2="159.0" y2="645.0" stroke="#aaa" stroke-width="0.5"/>
<line x1="174.0" y1="635.0" x2="168.0" y2="645.0" stroke="#aaa" stroke-width="0.5"/>
<line x1="183.0" y1="635.0" x2="177.0" y2="645.0" stroke="#aaa" stroke-width="0.5"/>
<line x1="192.0" y1="635.0" x2="186.0" y2="645.0" stroke="#aaa" stroke-width="0.5"/>
<line x1="201.0" y1="635.0" x2="195.0" y2="645.0" stroke="#aaa" stroke-width="0.5"/>
<line x1="210.0" y1="635.0" x2="204.0" y2="645.0" stroke="#aaa" stroke-width="0.5"/>
<line x1="219.0" y1="635.0" x2="213.0" y2="645.0" stroke="#aaa" stroke-width="0.5"/>
<line x1="228.0" y1="635.0" x2="222.0" y2="645.0" stroke="#aaa" stroke-width="0.5"/>
<line x1="237.0" y1="635.0" x2="231.0" y2="645.0" stroke="#aaa" stroke-width="0.5"/>
<line x1="246.0" y1="635.0" x2="240.0" y2="645.0" stroke="#aaa" stroke-width="0.5"/>
<line x1="255.0" y1="635.0" x2="249.0" y2="645.0" stroke="#aaa" stroke-width="0.5"/>
<line x1="264.0" y1="635.0" x2="258.0" y2="645.0" stroke="#aaa" stroke-width="0.5"/>
<line x1="273.0" y1="635.0" x2="267.0" y2="645.0" stroke="#aaa" stroke-width="0.5"/>
<line x1="282.0" y1="635.0" x2="276.0" y2="645.0" stroke="#aaa" stroke-width="0.5"/>
<line x1="291.0" y1="635.0" x2="285.0" y2="645.0" stroke="#aaa" stroke-width="0.5"/>
<line x1="300.0" y1="635.0" x2="294.0" y2="645.0" stroke="#aaa" stroke-width="0.5"/>
<line x1="309.0" y1="635.0" x2="303.0" y2="645.0" stroke="#aaa" stroke-width="0.5"/>
<line x1="318.0" y1="635.0" x2="312.0" y2="645.0" stroke="#aaa" stroke-width="0.5"/>
<line x1="327.0" y1="635.0" x2="321.0" y2="645.0" stroke="#aaa" stroke-width="0.5"/>
<line x1="336.0" y1="635.0" x2="330.0" y2="645.0" stroke="#aaa" stroke-width="0.5"/>
<line x1="345.0" y1="635.0" x2="339.0" y2="645.0" stroke="#aaa" stroke-width="0.5"/>
<line x1="354.0" y1="635.0" x2="348.0" y2="645.0" stroke="#aaa" stroke-width="0.5"/>
<line x1="363.0" y1="635.0" x2="357.0" y2="645.0" stroke="#aaa" stroke-width="0.5"/>
<line x1="372.0" y1="635.0" x2="366.0" y2="645.0" stroke="#aaa" stroke-width="0.5"/>
<line x1="381.0" y1="635.0" x2="375.0" y2="645.0" stroke="#aaa" stroke-width="0.5"/>
<line x1="390.0" y1="635.0" x2="384.0" y2="645.0" stroke="#aaa" stroke-width="0.5"/>
<line x1="399.0" y1="635.0" x2="393.0" y2="645.0" stroke="#aaa" stroke-width="0.5"/>
<line x1="408.0" y1="635.0" x2="402.0" y2="645.0" stroke="#aaa" stroke-width="0.5"/>
<line x1="417.0" y1="635.0" x2="411.0" y2="645.0" stroke="#aaa" stroke-width="0.5"/>
<line x1="426.0" y1="635.0" x2="420.0" y2="645.0" stroke="#aaa" stroke-width="0.5"/>
<line x1="435.0" y1="635.0" x2="429.0" y2="645.0" stroke="#aaa" stroke-width="0.5"/>
<line x1="444.0" y1="635.0" x2="438.0" y2="645.0" stroke="#aaa" stroke-width="0.5"/>
<line x1="453.0" y1="635.0" x2="447.0" y2="645.0" stroke="#aaa" stroke-width="0.5"/>
<line x1="462.0" y1="635.0" x2="456.0" y2="645.0" stroke="#aaa" stroke-width="0.5"/>
<line x1="471.0" y1="635.0" x2="465.0" y2="645.0" stroke="#aaa" stroke-width="0.5"/>
<line x1="480.0" y1="635.0" x2="474.0" y2="645.0" stroke="#aaa" stroke-width="0.5"/>
<line x1="489.0" y1="635.0" x2="483.0" y2="645.0" stroke="#aaa" stroke-width="0.5"/>
<line x1="498.0" y1="635.0" x2="492.0" y2="645.0" stroke="#aaa" stroke-width="0.5"/>
<line x1="507.0" y1="635.0" x2="501.0" y2="645.0" stroke="#aaa" stroke-width="0.5"/>
<line x1="516.0" y1="635.0" x2="510.0" y2="645.0" stroke="#aaa" stroke-width="0.5"/>
<line x1="525.0" y1="635.0" x2="519.0" y2="645.0" stroke="#aaa" stroke-width="0.5"/>
<line x1="534.0" y1="635.0" x2="528.0" y2="645.0" stroke="#aaa" stroke-width="0.5"/>
<line x1="543.0" y1="635.0" x2="537.0" y2="645.0" stroke="#aaa" stroke-width="0.5"/>
<line x1="552.0" y1="635.0" x2="546.0" y2="645.0" stroke="#aaa" stroke-width="0.5"/>
<line x1="561.0" y1="635.0" x2="555.0" y2="645.0" stroke="#aaa" stroke-width="0.5"/>
<line x1="570.0" y1="635.0" x2="564.0" y2="645.0" stroke="#aaa" stroke-width="0.5"/>
<line x1="579.0" y1="635.0" x2="573.0" y2="645.0" stroke="#aaa" stroke-width="0.5"/>
<line x1="588.0" y1="635.0" x2="582.0" y2="645.0" stroke="#aaa" stroke-width="0.5"/>
<line x1="597.0" y1="635.0" x2="591.0" y2="645.0" stroke="#aaa" stroke-width="0.5"/>
<line x1="606.0" y1="635.0" x2="600.0" y2="645.0" stroke="#aaa" stroke-width="0.5"/>
<line x1="615.0" y1="635.0" x2="609.0" y2="645.0" stroke="#aaa" stroke-width="0.5"/>
<line x1="624.0" y1="635.0" x2="618.0" y2="645.0" stroke="#aaa" stroke-width="0.5"/>
<line x1="633.0" y1="635.0" x2="627.0" y2="645.0" stroke="#aaa" stroke-width="0.5"/>
<line x1="642.0" y1="635.0" x2="636.0" y2="645.0" stroke="#aaa" stroke-width="0.5"/>
<line x1="651.0" y1="635.0" x2="645.0" y2="645.0" stroke="#aaa" stroke-width="0.5"/>
<line x1="660.0" y1="635.0" x2="654.0" y2="645.0" stroke="#aaa" stroke-width="0.5"/>
<line x1="669.0" y1="635.0" x2="663.0" y2="645.0" stroke="#aaa" stroke-width="0.5"/>
<line x1="678.0" y1="635.0" x2="672.0" y2="645.0" stroke="#aaa" stroke-width="0.5"/>
<line x1="687.0" y1="635.0" x2="681.0" y2="645.0" stroke="#aaa" stroke-width="0.5"/>
<line x1="696.0" y1="635.0" x2="690.0" y2="645.0" stroke="#aaa" stroke-width="0.5"/>
<line x1="705.0" y1="635.0" x2="699.0" y2="645.0" stroke="#aaa" stroke-width="0.5"/>
<line x1="714.0" y1="635.0" x2="708.0" y2="645.0" stroke="#aaa" stroke-width="0.5"/>
<line x1="723.0" y1="635.0" x2="717.0" y2="645.0" stroke="#aaa" stroke-width="0.5"/>
<line x1="732.0" y1="635.0" x2="726.0" y2="645.0" stroke="#aaa" stroke-width="0.5"/>
<line x1="741.0" y1="635.0" x2="735.0" y2="645.0" stroke="#aaa" stroke-width="0.5"/>
<rect x="90.0" y="110.0" width="22.8" height="525.0" fill="#d4a373" stroke="#3a2a18" stroke-width="0.7"/>
<line x1="101.4" y1="110.0" x2="101.4" y2="635.0" stroke="#8b5a2b" stroke-width="0.4" stroke-dasharray="3,2"/>
<rect x="691.1999999999999" y="110.0" width="22.8" height="525.0" fill="#d4a373" stroke="#3a2a18" stroke-width="0.7"/>
<line x1="702.6" y1="110.0" x2="702.6" y2="635.0" stroke="#8b5a2b" stroke-width="0.4" stroke-dasharray="3,2"/>
<rect x="112.8" y="245.0" width="578.4" height="26.7" fill="#dcbb8a" stroke="#3a2a18" stroke-width="0.6"/>
<rect x="112.8" y="110.0" width="578.4" height="26.7" fill="#dcbb8a" stroke="#3a2a18" stroke-width="0.6"/>
<rect x="126.44" y="239.29999999999998" width="26.7" height="5.7" fill="#efd9b4" stroke="#a87a4e" stroke-width="0.3"/>
<rect x="166.78" y="239.29999999999998" width="26.7" height="5.7" fill="#efd9b4" stroke="#a87a4e" stroke-width="0.3"/>
<rect x="207.12" y="239.29999999999998" width="26.7" height="5.7" fill="#efd9b4" stroke="#a87a4e" stroke-width="0.3"/>
<rect x="247.46" y="239.29999999999998" width="26.7" height="5.7" fill="#efd9b4" stroke="#a87a4e" stroke-width="0.3"/>
<rect x="287.8" y="239.29999999999998" width="26.7" height="5.7" fill="#efd9b4" stroke="#a87a4e" stroke-width="0.3"/>
<rect x="328.14" y="239.29999999999998" width="26.7" height="5.7" fill="#efd9b4" stroke="#a87a4e" stroke-width="0.3"/>
<rect x="368.47999999999996" y="239.29999999999998" width="26.7" height="5.7" fill="#efd9b4" stroke="#a87a4e" stroke-width="0.3"/>
<rect x="408.82" y="239.29999999999998" width="26.7" height="5.7" fill="#efd9b4" stroke="#a87a4e" stroke-width="0.3"/>
<rect x="449.16" y="239.29999999999998" width="26.7" height="5.7" fill="#efd9b4" stroke="#a87a4e" stroke-width="0.3"/>
<rect x="489.5" y="239.29999999999998" width="26.7" height="5.7" fill="#efd9b4" stroke="#a87a4e" stroke-width="0.3"/>
<rect x="529.8399999999999" y="239.29999999999998" width="26.7" height="5.7" fill="#efd9b4" stroke="#a87a4e" stroke-width="0.3"/>
<rect x="570.18" y="239.29999999999998" width="26.7" height="5.7" fill="#efd9b4" stroke="#a87a4e" stroke-width="0.3"/>
<rect x="610.52" y="239.29999999999998" width="26.7" height="5.7" fill="#efd9b4" stroke="#a87a4e" stroke-width="0.3"/>
<rect x="650.86" y="239.29999999999998" width="26.7" height="5.7" fill="#efd9b4" stroke="#a87a4e" stroke-width="0.3"/>
<rect x="132.62857142857143" y="136.7" width="8.1" height="108.3" fill="#e8c9a5" stroke="#a87a4e" stroke-width="0.3"/>
<rect x="160.55714285714288" y="136.7" width="8.1" height="108.3" fill="#e8c9a5" stroke="#a87a4e" stroke-width="0.3"/>
<rect x="188.4857142857143" y="136.7" width="8.1" height="108.3" fill="#e8c9a5" stroke="#a87a4e" stroke-width="0.3"/>
<rect x="216.4142857142857" y="136.7" width="8.1" height="108.3" fill="#e8c9a5" stroke="#a87a4e" stroke-width="0.3"/>
<rect x="244.34285714285713" y="136.7" width="8.1" height="108.3" fill="#e8c9a5" stroke="#a87a4e" stroke-width="0.3"/>
<rect x="272.2714285714286" y="136.7" width="8.1" height="108.3" fill="#e8c9a5" stroke="#a87a4e" stroke-width="0.3"/>
<rect x="300.20000000000005" y="136.7" width="8.1" height="108.3" fill="#e8c9a5" stroke="#a87a4e" stroke-width="0.3"/>
<rect x="328.12857142857143" y="136.7" width="8.1" height="108.3" fill="#e8c9a5" stroke="#a87a4e" stroke-width="0.3"/>
<rect x="356.0571428571429" y="136.7" width="8.1" height="108.3" fill="#e8c9a5" stroke="#a87a4e" stroke-width="0.3"/>
<rect x="383.98571428571427" y="136.7" width="8.1" height="108.3" fill="#e8c9a5" stroke="#a87a4e" stroke-width="0.3"/>
<rect x="411.91428571428577" y="136.7" width="8.1" height="108.3" fill="#e8c9a5" stroke="#a87a4e" stroke-width="0.3"/>
<rect x="439.8428571428572" y="136.7" width="8.1" height="108.3" fill="#e8c9a5" stroke="#a87a4e" stroke-width="0.3"/>
<rect x="467.7714285714286" y="136.7" width="8.1" height="108.3" fill="#e8c9a5" stroke="#a87a4e" stroke-width="0.3"/>
<rect x="495.70000000000005" y="136.7" width="8.1" height="108.3" fill="#e8c9a5" stroke="#a87a4e" stroke-width="0.3"/>
<rect x="523.6285714285714" y="136.7" width="8.1" height="108.3" fill="#e8c9a5" stroke="#a87a4e" stroke-width="0.3"/>
<rect x="551.5571428571429" y="136.7" width="8.1" height="108.3" fill="#e8c9a5" stroke="#a87a4e" stroke-width="0.3"/>
<rect x="579.4857142857143" y="136.7" width="8.1" height="108.3" fill="#e8c9a5" stroke="#a87a4e" stroke-width="0.3"/>
<rect x="607.4142857142857" y="136.7" width="8.1" height="108.3" fill="#e8c9a5" stroke="#a87a4e" stroke-width="0.3"/>
<rect x="635.3428571428572" y="136.7" width="8.1" height="108.3" fill="#e8c9a5" stroke="#a87a4e" stroke-width="0.3"/>
<rect x="663.2714285714286" y="136.7" width="8.1" height="108.3" fill="#e8c9a5" stroke="#a87a4e" stroke-width="0.3"/>
<line x1="699.0" y1="635.0" x2="630.0" y2="230.0" stroke="#6f4622" stroke-width="3" stroke-linecap="round"/>
<line x1="681.5" y1="567.5" x2="693.5" y2="567.5" stroke="#6f4622" stroke-width="2"/>
<line x1="670.0" y1="500.0" x2="682.0" y2="500.0" stroke="#6f4622" stroke-width="2"/>
<line x1="658.5" y1="432.5" x2="670.5" y2="432.5" stroke="#6f4622" stroke-width="2"/>
<line x1="647.0" y1="365.0" x2="659.0" y2="365.0" stroke="#6f4622" stroke-width="2"/>
<line x1="635.5" y1="297.5" x2="647.5" y2="297.5" stroke="#6f4622" stroke-width="2"/>
<line x1="90.0" y1="675.0" x2="714.0" y2="675.0" stroke="#333" stroke-width="0.6" marker-start="url(#arrR)" marker-end="url(#arr)"/>
<line x1="90.0" y1="671.0" x2="90.0" y2="679.0" stroke="#333" stroke-width="0.6"/>
<line x1="714.0" y1="671.0" x2="714.0" y2="679.0" stroke="#333" stroke-width="0.6"/>
<text x="402.0" y="671.0" text-anchor="middle" font-size="9" fill="#333">2080 (couchage 1900 + 90 jeu)</text>
<line x1="112.8" y1="697.0" x2="691.1999999999999" y2="697.0" stroke="#333" stroke-width="0.6" marker-start="url(#arrR)" marker-end="url(#arr)"/>
<line x1="112.8" y1="693.0" x2="112.8" y2="701.0" stroke="#333" stroke-width="0.6"/>
<line x1="691.1999999999999" y1="693.0" x2="691.1999999999999" y2="701.0" stroke="#333" stroke-width="0.6"/>
<text x="401.99999999999994" y="693.0" text-anchor="middle" font-size="9" fill="#333">1928 (entre-montants)</text>
<line x1="764.0" y1="110.0" x2="764.0" y2="635.0" stroke="#333" stroke-width="0.6" marker-start="url(#arrR)" marker-end="url(#arr)"/>
<line x1="760.0" y1="110.0" x2="768.0" y2="110.0" stroke="#333" stroke-width="0.6"/>
<line x1="760.0" y1="635.0" x2="768.0" y2="635.0" stroke="#333" stroke-width="0.6"/>
<text x="760.0" y="375.5" text-anchor="end" font-size="9" fill="#333">1750 (H totale)</text>
<line x1="824.0" y1="245.0" x2="824.0" y2="635.0" stroke="#333" stroke-width="0.6" marker-start="url(#arrR)" marker-end="url(#arr)"/>
<line x1="820.0" y1="245.0" x2="828.0" y2="245.0" stroke="#333" stroke-width="0.6"/>
<line x1="820.0" y1="635.0" x2="828.0" y2="635.0" stroke="#333" stroke-width="0.6"/>
<text x="820.0" y="443.0" text-anchor="end" font-size="9" fill="#333">1300 (sous-sommier)</text>
<line x1="824.0" y1="110.0" x2="824.0" y2="245.0" stroke="#333" stroke-width="0.6" marker-start="url(#arrR)" marker-end="url(#arr)"/>
<line x1="820.0" y1="110.0" x2="828.0" y2="110.0" stroke="#333" stroke-width="0.6"/>
<line x1="820.0" y1="245.0" x2="828.0" y2="245.0" stroke="#333" stroke-width="0.6"/>
<text x="820.0" y="180.5" text-anchor="end" font-size="9" fill="#333">450 (garde-corps)</text>
<text x="130.81428571428572" y="130.7" text-anchor="middle" font-size="8" fill="#666" font-weight="normal">gap 66 mm (&lt; 75)</text>
<line x1="70.0" y1="560.0" x2="723.0" y2="560.0" stroke="#aaa" stroke-width="0.3" stroke-dasharray="4,3"/>
<text x="724.5" y="563.0" text-anchor="start" font-size="8" fill="#888" font-weight="normal">Z = 250 (traverse basse)</text>
<line x1="112.8" y1="200.0" x2="691.1999999999999" y2="200.0" stroke="#c05a30" stroke-width="0.4" stroke-dasharray="3,2"/>
<text x="689.6999999999999" y="198.0" text-anchor="end" font-size="8" fill="#c05a30" font-weight="normal">top matelas (ép. 150 mm)</text>
<line x1="112.8" y1="122.0" x2="691.1999999999999" y2="122.0" stroke="#3a5810" stroke-width="0.4" stroke-dasharray="3,2"/>
<text x="114.3" y="120.0" text-anchor="start" font-size="8" fill="#3a5810" font-weight="normal">≥ 26 cm au-dessus matelas (NF EN 747)</text>
<line x1="101.4" y1="108.0" x2="101.4" y2="135.0" stroke="#666" stroke-width="0.4" stroke-dasharray="2,2"/>
<circle cx="101.4" cy="135.0" r="1.5" fill="#444"/>
<text x="101.4" y="52.0" text-anchor="middle" font-size="10" fill="#222" font-weight="bold">Montant</text>
<text x="101.4" y="66.0" text-anchor="middle" font-size="9" fill="#222" font-weight="normal">2×(2×4) collé</text>
<text x="101.4" y="80.0" text-anchor="middle" font-size="9" fill="#222" font-weight="normal">76 × 89</text>
<line x1="402.0" y1="231.64999999999998" x2="402.0" y2="181.64999999999998" stroke="#666" stroke-width="0.4" stroke-dasharray="2,2"/>
<circle cx="402.0" cy="181.64999999999998" r="1.5" fill="#444"/>
<text x="402.0" y="176.64999999999998" text-anchor="middle" font-size="9" fill="#222" font-weight="bold">Longeron sommier 2×4 sur chant</text>
<line x1="526.8" y1="123.35" x2="526.8" y2="135.0" stroke="#666" stroke-width="0.4" stroke-dasharray="2,2"/>
<circle cx="526.8" cy="135.0" r="1.5" fill="#444"/>
<text x="526.8" y="145.0" text-anchor="middle" font-size="8" fill="#222" font-weight="bold">Garde-corps haut 2×4 + balustres 1×4</text>
</svg>