<svg xmlns="http://www.w3.org/2000/svg" viewBox="0 0 600 380" font-family="-apple-system, Helvetica Neue, Arial, sans-serif">
<rect width="600" height="380" fill="#fdfaf3"/>
<defs>
<marker id="arr" markerWidth="8" markerHeight="8" refX="7" refY="4" orient="auto"><polygon points="0,0 8,4 0,8" fill="#333"/></marker>
<marker id="arrR" markerWidth="8" markerHeight="8" refX="1" refY="4" orient="auto"><polygon points="8,0 0,4 8,8" fill="#333"/></marker>
<pattern id="hatch" patternUnits="userSpaceOnUse" width="6" height="6" patternTransform="rotate(45)"><line x1="0" y1="0" x2="0" y2="6" stroke="#a87a4e" stroke-width="0.8"/></pattern>
<pattern id="hatchL" patternUnits="userSpaceOnUse" width="5" height="5" patternTransform="rotate(45)"><line x1="0" y1="0" x2="0" y2="5" stroke="#c79e63" stroke-width="0.6"/></pattern>
</defs>
<text x="300.0" y="22" text-anchor="middle" font-size="14" font-weight="bold" fill="#222">Détail — Montant doublé 2×(2×4) — coupe horizontale</text>
<rect x="205.0" y="88.75" width="95.0" height="222.5" fill="#d4a373" stroke="#3a2a18" stroke-width="1.2"/>
<rect x="300.0" y="88.75" width="95.0" height="222.5" fill="#d4a373" stroke="#3a2a18" stroke-width="1.2"/>
<line x1="300.0" y1="88.75" x2="300.0" y2="311.25" stroke="#a85020" stroke-width="2"/>
<line x1="272.0" y1="170" x2="328.0" y2="175" stroke="#444" stroke-width="0.8"/>
<circle cx="328.0" cy="175" r="2.5" fill="#444"/>
<line x1="328.0" y1="155" x2="272.0" y2="160" stroke="#444" stroke-width="0.8"/>
<circle cx="272.0" cy="160" r="2.5" fill="#444"/>
<line x1="272.0" y1="200" x2="328.0" y2="205" stroke="#444" stroke-width="0.8"/>
<circle cx="328.0" cy="205" r="2.5" fill="#444"/>
<line x1="328.0" y1="185" x2="272.0" y2="190" stroke="#444" stroke-width="0.8"/>
<circle cx="272.0" cy="190" r="2.5" fill="#444"/>
<line x1="272.0" y1="230" x2="328.0" y2="235" stroke="#444" stroke-width="0.8"/>
<circle cx="328.0" cy="235" r="2.5" fill="#444"/>
<line x1="328.0" y1="215" x2="272.0" y2="220" stroke="#444" stroke-width="0.8"/>
<circle cx="272.0" cy="220" r="2.5" fill="#444"/>
<line x1="205.0" y1="346.25" x2="395.0" y2="346.25" stroke="#333" stroke-width="0.6" marker-start="url(#arrR)" marker-end="url(#arr)"/>
<line x1="205.0" y1="342.25" x2="205.0" y2="350.25" stroke="#333" stroke-width="0.6"/>
<line x1="395.0" y1="342.25" x2="395.0" y2="350.25" stroke="#333" stroke-width="0.6"/>
<text x="300.0" y="342.25" text-anchor="middle" font-size="9" fill="#333">76 mm (assemblé)</text>
<line x1="205.0" y1="329.25" x2="300.0" y2="329.25" stroke="#333" stroke-width="0.6" marker-start="url(#arrR)" marker-end="url(#arr)"/>
<line x1="205.0" y1="325.25" x2="205.0" y2="333.25" stroke="#333" stroke-width="0.6"/>
<line x1="300.0" y1="325.25" x2="300.0" y2="333.25" stroke="#333" stroke-width="0.6"/>
<text x="252.5" y="326.25" text-anchor="middle" font-size="9" fill="#333">38 (2×4)</text>
<line x1="300.0" y1="329.25" x2="395.0" y2="329.25" stroke="#333" stroke-width="0.6" marker-start="url(#arrR)" marker-end="url(#arr)"/>
<line x1="300.0" y1="325.25" x2="300.0" y2="333.25" stroke="#333" stroke-width="0.6"/>
<line x1="395.0" y1="325.25" x2="395.0" y2="333.25" stroke="#333" stroke-width="0.6"/>
<text x="347.5" y="326.25" text-anchor="middle" font-size="9" fill="#333">38 (2×4)</text>
<line x1="180.0" y1="88.75" x2="180.0" y2="311.25" stroke="#333" stroke-width="0.6" marker-start="url(#arrR)" marker-end="url(#arr)"/>
<line x1="176.0" y1="88.75" x2="184.0" y2="88.75" stroke="#333" stroke-width="0.6"/>
<line x1="176.0" y1="311.25" x2="184.0" y2="311.25" stroke="#333" stroke-width="0.6"/>
<text x="176.0" y="203.0" text-anchor="end" font-size="9" fill="#333">89 mm</text>
<text x="300.0" y="38.75" text-anchor="middle" font-size="11" fill="#222" font-weight="bold">2 lamelles 2×4 collées face contre face</text>
<text x="300.0" y="52.75" text-anchor="middle" font-size="10" fill="#666" font-weight="normal">→ section finie 76 × 89 mm (≈ poteau 80×80)</text>
<line x1="300.0" y1="205" x2="410.0" y2="205" stroke="#666" stroke-width="0.4" stroke-dasharray="2,2"/>
<circle cx="410.0" cy="205" r="1.5" fill="#444"/>
<text x="415.0" y="208" text-anchor="start" font-size="10" fill="#a85020" font-weight="bold">Plan de colle PVA D3</text>
<text x="415.0" y="222" text-anchor="start" font-size="9" fill="#666" font-weight="normal">+ vis 5×80 alternées tous les 25 cm</text>
<text x="40" y="350" text-anchor="start" font-size="9" fill="#333" font-weight="normal">Procédure : encoller toute la surface, presser aux serre-joints 30 min puis visser. Sécher 12 h avant manipulation.</text>
</svg>