<svg xmlns="http://www.w3.org/2000/svg" viewBox="0 0 900 380" font-family="-apple-system, Helvetica Neue, Arial, sans-serif">
<rect width="900" height="380" fill="#fdfaf3"/>
<defs>
<marker id="arr" markerWidth="8" markerHeight="8" refX="7" refY="4" orient="auto"><polygon points="0,0 8,4 0,8" fill="#333"/></marker>
<marker id="arrR" markerWidth="8" markerHeight="8" refX="1" refY="4" orient="auto"><polygon points="8,0 0,4 8,8" fill="#333"/></marker>
<pattern id="hatch" patternUnits="userSpaceOnUse" width="6" height="6" patternTransform="rotate(45)"><line x1="0" y1="0" x2="0" y2="6" stroke="#a87a4e" stroke-width="0.8"/></pattern>
<pattern id="hatchL" patternUnits="userSpaceOnUse" width="5" height="5" patternTransform="rotate(45)"><line x1="0" y1="0" x2="0" y2="5" stroke="#c79e63" stroke-width="0.6"/></pattern>
</defs>
<text x="450.0" y="22" text-anchor="middle" font-size="14" font-weight="bold" fill="#222">Détail — Échelle (limons + barreaux 1×4 embrevés)</text>
<polygon points="80.0,320.0 225.5,-364.7 182.0,-374.0 36.5,310.7" fill="#d4a373" stroke="#3a2a18" stroke-width="0.8"/>
<line x1="87.3" y1="285.8" x2="243.8" y2="319.0" stroke="#a87a4e" stroke-width="6" stroke-linecap="round"/>
<line x1="86.2" y1="290.7" x2="88.3" y2="280.9" stroke="#5a3a1a" stroke-width="2"/>
<line x1="114.3" y1="158.6" x2="270.8" y2="191.9" stroke="#a87a4e" stroke-width="6" stroke-linecap="round"/>
<line x1="113.3" y1="163.5" x2="115.3" y2="153.7" stroke="#5a3a1a" stroke-width="2"/>
<line x1="141.3" y1="31.4" x2="297.8" y2="64.7" stroke="#a87a4e" stroke-width="6" stroke-linecap="round"/>
<line x1="140.3" y1="36.3" x2="142.4" y2="26.6" stroke="#5a3a1a" stroke-width="2"/>
<line x1="168.4" y1="-95.7" x2="324.9" y2="-62.4" stroke="#a87a4e" stroke-width="6" stroke-linecap="round"/>
<line x1="167.3" y1="-90.8" x2="169.4" y2="-100.6" stroke="#5a3a1a" stroke-width="2"/>
<line x1="195.4" y1="-222.9" x2="351.9" y2="-189.6" stroke="#a87a4e" stroke-width="6" stroke-linecap="round"/>
<line x1="194.4" y1="-218.0" x2="196.4" y2="-227.8" stroke="#5a3a1a" stroke-width="2"/>
<text x="600" y="86" font-size="10" font-weight="bold" fill="#222">Détail entaille / barreau :</text>
<rect x="600" y="100" width="133.5" height="180.0" fill="#d4a373" stroke="#3a2a18" stroke-width="1"/>
<rect x="652.5" y="190.0" width="28.5" height="15.0" fill="#5a3a1a" stroke="#3a2a18" stroke-width="0.5"/>
<rect x="652.5" y="182.5" width="28.5" height="30.0" fill="#a87a4e" stroke="#3a2a18" stroke-width="0.6"/>
<line x1="652.5" y1="223.0" x2="681.0" y2="223.0" stroke="#333" stroke-width="0.6" marker-start="url(#arrR)" marker-end="url(#arr)"/>
<line x1="652.5" y1="219.0" x2="652.5" y2="227.0" stroke="#333" stroke-width="0.6"/>
<line x1="681.0" y1="219.0" x2="681.0" y2="227.0" stroke="#333" stroke-width="0.6"/>
<text x="666.75" y="221.0" text-anchor="middle" font-size="9" fill="#333">19</text>
<line x1="640.5" y1="190.0" x2="640.5" y2="205.0" stroke="#333" stroke-width="0.6" marker-start="url(#arrR)" marker-end="url(#arr)"/>
<line x1="636.5" y1="190.0" x2="644.5" y2="190.0" stroke="#333" stroke-width="0.6"/>
<line x1="636.5" y1="205.0" x2="644.5" y2="205.0" stroke="#333" stroke-width="0.6"/>
<text x="638.5" y="200.5" text-anchor="end" font-size="9" fill="#333">10</text>
<text x="738.5" y="195.0" text-anchor="start" font-size="9" fill="#444" font-weight="normal">Entaille 19 × 10 mm</text>
<text x="738.5" y="208.0" text-anchor="start" font-size="9" fill="#444" font-weight="normal">Barreau 1×4 collé</text>
<text x="738.5" y="221.0" text-anchor="start" font-size="9" fill="#444" font-weight="normal">+ 1 vis 4×40 par côté</text>
<text x="235.53818357243162" y="-372.7033205136639" text-anchor="start" font-size="9" fill="#666" font-weight="normal">L = 1400 mm (Lit 1)</text>
<text x="235.53818357243162" y="-359.7033205136639" text-anchor="start" font-size="9" fill="#666" font-weight="normal">L = 1600 mm (Lit 2)</text>
<text x="50" y="340" text-anchor="start" font-size="9" fill="#666" font-weight="bold">75° du sol</text>
<text x="40" y="370" text-anchor="start" font-size="9" fill="#333" font-weight="normal">Espacement barreaux : ~250 mm  ·  5 barreaux Lit 1 / 6 barreaux Lit 2</text>
</svg>