<svg xmlns="http://www.w3.org/2000/svg" viewBox="0 0 824 490" font-family="-apple-system, Helvetica Neue, Arial, sans-serif">
<rect width="824" height="490" fill="#fdfaf3"/>
<defs>
<marker id="arr" markerWidth="8" markerHeight="8" refX="7" refY="4" orient="auto"><polygon points="0,0 8,4 0,8" fill="#333"/></marker>
<marker id="arrR" markerWidth="8" markerHeight="8" refX="1" refY="4" orient="auto"><polygon points="8,0 0,4 8,8" fill="#333"/></marker>
<pattern id="hatch" patternUnits="userSpaceOnUse" width="6" height="6" patternTransform="rotate(45)"><line x1="0" y1="0" x2="0" y2="6" stroke="#a87a4e" stroke-width="0.8"/></pattern>
<pattern id="hatchL" patternUnits="userSpaceOnUse" width="5" height="5" patternTransform="rotate(45)"><line x1="0" y1="0" x2="0" y2="5" stroke="#c79e63" stroke-width="0.6"/></pattern>
</defs>
<text x="412.0" y="22" text-anchor="middle" font-size="14" font-weight="bold" fill="#222">Plan du sommier (vue de dessus) — lattes et tasseaux</text>
<rect x="80.0" y="70.0" width="624.0" height="330.0" fill="none" stroke="#888" stroke-width="0.4" stroke-dasharray="3,2"/>
<rect x="80.0" y="70.0" width="22.8" height="26.7" fill="#d4a373" stroke="#3a2a18" stroke-width="0.8"/>
<rect x="681.1999999999999" y="70.0" width="22.8" height="26.7" fill="#d4a373" stroke="#3a2a18" stroke-width="0.8"/>
<rect x="80.0" y="373.3" width="22.8" height="26.7" fill="#d4a373" stroke="#3a2a18" stroke-width="0.8"/>
<rect x="681.1999999999999" y="373.3" width="22.8" height="26.7" fill="#d4a373" stroke="#3a2a18" stroke-width="0.8"/>
<rect x="102.8" y="85.3" width="578.4" height="11.4" fill="#dcbb8a" stroke="#3a2a18" stroke-width="0.5"/>
<rect x="102.8" y="373.3" width="578.4" height="11.4" fill="#dcbb8a" stroke="#3a2a18" stroke-width="0.5"/>
<rect x="91.4" y="96.7" width="11.4" height="276.59999999999997" fill="#dcbb8a" stroke="#3a2a18" stroke-width="0.5"/>
<rect x="681.1999999999999" y="96.7" width="11.4" height="276.59999999999997" fill="#dcbb8a" stroke="#3a2a18" stroke-width="0.5"/>
<rect x="102.8" y="96.7" width="578.4" height="5.7" fill="#c79e63" stroke="#3a2a18" stroke-width="0.4"/>
<rect x="102.8" y="367.59999999999997" width="578.4" height="5.7" fill="#c79e63" stroke="#3a2a18" stroke-width="0.4"/>
<rect x="116.44" y="102.4" width="26.7" height="265.2" fill="#efd9b4" stroke="#a87a4e" stroke-width="0.3"/>
<rect x="156.78" y="102.4" width="26.7" height="265.2" fill="#efd9b4" stroke="#a87a4e" stroke-width="0.3"/>
<rect x="197.12" y="102.4" width="26.7" height="265.2" fill="#efd9b4" stroke="#a87a4e" stroke-width="0.3"/>
<rect x="237.46" y="102.4" width="26.7" height="265.2" fill="#efd9b4" stroke="#a87a4e" stroke-width="0.3"/>
<rect x="277.8" y="102.4" width="26.7" height="265.2" fill="#efd9b4" stroke="#a87a4e" stroke-width="0.3"/>
<rect x="318.14" y="102.4" width="26.7" height="265.2" fill="#efd9b4" stroke="#a87a4e" stroke-width="0.3"/>
<rect x="358.47999999999996" y="102.4" width="26.7" height="265.2" fill="#efd9b4" stroke="#a87a4e" stroke-width="0.3"/>
<rect x="398.82" y="102.4" width="26.7" height="265.2" fill="#efd9b4" stroke="#a87a4e" stroke-width="0.3"/>
<rect x="439.16" y="102.4" width="26.7" height="265.2" fill="#efd9b4" stroke="#a87a4e" stroke-width="0.3"/>
<rect x="479.5" y="102.4" width="26.7" height="265.2" fill="#efd9b4" stroke="#a87a4e" stroke-width="0.3"/>
<rect x="519.8399999999999" y="102.4" width="26.7" height="265.2" fill="#efd9b4" stroke="#a87a4e" stroke-width="0.3"/>
<rect x="560.18" y="102.4" width="26.7" height="265.2" fill="#efd9b4" stroke="#a87a4e" stroke-width="0.3"/>
<rect x="600.52" y="102.4" width="26.7" height="265.2" fill="#efd9b4" stroke="#a87a4e" stroke-width="0.3"/>
<rect x="640.86" y="102.4" width="26.7" height="265.2" fill="#efd9b4" stroke="#a87a4e" stroke-width="0.3"/>
<line x1="80.0" y1="435.0" x2="704.0" y2="435.0" stroke="#333" stroke-width="0.6" marker-start="url(#arrR)" marker-end="url(#arr)"/>
<line x1="80.0" y1="431.0" x2="80.0" y2="439.0" stroke="#333" stroke-width="0.6"/>
<line x1="704.0" y1="431.0" x2="704.0" y2="439.0" stroke="#333" stroke-width="0.6"/>
<text x="392.0" y="431.0" text-anchor="middle" font-size="9" fill="#333">2080</text>
<line x1="102.8" y1="457.0" x2="681.1999999999999" y2="457.0" stroke="#333" stroke-width="0.6" marker-start="url(#arrR)" marker-end="url(#arr)"/>
<line x1="102.8" y1="453.0" x2="102.8" y2="461.0" stroke="#333" stroke-width="0.6"/>
<line x1="681.1999999999999" y1="453.0" x2="681.1999999999999" y2="461.0" stroke="#333" stroke-width="0.6"/>
<text x="391.99999999999994" y="453.0" text-anchor="middle" font-size="9" fill="#333">1928 (intérieur)</text>
<line x1="734.0" y1="70.0" x2="734.0" y2="400.0" stroke="#333" stroke-width="0.6" marker-start="url(#arrR)" marker-end="url(#arr)"/>
<line x1="730.0" y1="70.0" x2="738.0" y2="70.0" stroke="#333" stroke-width="0.6"/>
<line x1="730.0" y1="400.0" x2="738.0" y2="400.0" stroke="#333" stroke-width="0.6"/>
<text x="730.0" y="238.0" text-anchor="end" font-size="9" fill="#333">1100</text>
<line x1="794.0" y1="96.7" x2="794.0" y2="373.3" stroke="#333" stroke-width="0.6" marker-start="url(#arrR)" marker-end="url(#arr)"/>
<line x1="790.0" y1="96.7" x2="798.0" y2="96.7" stroke="#333" stroke-width="0.6"/>
<line x1="790.0" y1="373.3" x2="798.0" y2="373.3" stroke="#333" stroke-width="0.6"/>
<text x="790.0" y="238.0" text-anchor="end" font-size="9" fill="#333">922</text>
<text x="136.32" y="235.0" text-anchor="middle" font-size="8" fill="#666" font-weight="normal">gap 45 mm</text>
<rect x="40" y="430" width="20" height="10" fill="#d4a373" stroke="#3a2a18" stroke-width="0.5"/>
<text x="64" y="439" text-anchor="start" font-size="9" fill="#222" font-weight="normal">Montants doublés 76×89</text>
<rect x="220" y="430" width="20" height="10" fill="#dcbb8a" stroke="#3a2a18" stroke-width="0.5"/>
<text x="244" y="439" text-anchor="start" font-size="9" fill="#222" font-weight="normal">Longerons + traverses 2×4</text>
<rect x="400" y="430" width="20" height="10" fill="#c79e63" stroke="#3a2a18" stroke-width="0.5"/>
<text x="424" y="439" text-anchor="start" font-size="9" fill="#222" font-weight="normal">Tasseaux 19×43 (refente 1×4)</text>
<rect x="580" y="430" width="20" height="10" fill="#efd9b4" stroke="#3a2a18" stroke-width="0.5"/>
<text x="604" y="439" text-anchor="start" font-size="9" fill="#222" font-weight="normal">Lattes 1×4 (×14)</text>
</svg>